<?xml version="1.0" standalone="no"?>
<!DOCTYPE svg PUBLIC "-//W3C//DTD SVG 20010904//EN"
 "http://www.w3.org/TR/2001/REC-SVG-20010904/DTD/svg10.dtd">
<svg version="1.0" xmlns="http://www.w3.org/2000/svg"
 width="512.000000pt" height="512.000000pt" viewBox="0 0 512.000000 512.000000"
 preserveAspectRatio="xMidYMid meet">
<metadata>
Created by potrace 1.11, written by Peter Selinger 2001-2013
</metadata>
<g transform="translate(0.000000,512.000000) scale(0.100000,-0.100000)"
fill="#000000" stroke="none">
<path d="M2383 5110 c-256 -18 -535 -83 -803 -190 -93 -37 -334 -166 -432
-231 -452 -303 -796 -736 -982 -1238 -249 -667 -212 -1381 104 -2026 128 -261
296 -492 511 -700 427 -415 961 -659 1564 -715 279 -26 561 -1 861 75 169 43
295 90 470 175 259 125 453 261 663 465 229 223 378 427 512 700 93 191 139
312 184 489 113 444 113 848 0 1291 -66 260 -190 536 -343 765 -449 674 -1160
1085 -1972 1140 -158 11 -172 11 -337 0z m367 -470 c0 -5 -4 -10 -10 -10 -5 0
-10 5 -10 10 0 6 5 10 10 10 6 0 10 -4 10 -10z m240 -55 l0 -65 68 0 67 0 -5
-67 -5 -68 -3 58 -3 57 -54 0 -55 0 0 -83 c0 -130 -12 -297 -22 -297 -4 0 -8
29 -8 65 l0 65 -46 0 -45 0 1 -57 c1 -32 0 -62 -1 -68 -5 -18 -14 261 -11 334
l4 71 51 0 52 0 0 50 0 50 -58 0 c-36 0 -56 4 -52 10 3 6 33 10 66 10 l59 0 0
-65z m-427 -212 c-18 -2 -48 -2 -65 0 -18 2 -4 4 32 4 36 0 50 -2 33 -4z m155
-191 l-2 -67 -3 58 -4 57 -54 0 -55 0 0 -50 0 -50 -65 0 -65 0 0 60 0 59 58 3
c31 2 87 2 125 0 l67 -4 -2 -66z m-98 -117 l0 -55 53 0 52 0 -3 50 -4 50 71 0
71 0 0 -255 0 -254 -67 -3 -68 -3 -3 -67 -3 -68 -64 0 -65 0 0 -65 0 -65 -62
2 -63 2 58 3 57 4 0 54 0 55 -55 0 -55 0 0 75 0 75 -67 0 -68 0 0 62 0 63
-137 3 -138 3 0 -77 0 -76 65 4 65 3 1 -120 c1 -66 3 -154 5 -195 l3 -75 200
-3 201 -2 0 -65 0 -65 66 0 66 0 -4 65 -4 65 73 0 73 0 0 65 0 65 68 1 c37 0
96 1 132 2 l65 2 0 63 0 62 62 0 63 0 0 -55 0 -55 55 0 55 0 0 125 c0 69 4
125 9 125 5 0 10 -58 10 -130 l2 -130 -66 0 -65 0 -1 -255 c-1 -140 -2 -260
-3 -267 -1 -8 -21 -11 -63 -9 -52 2 -62 0 -67 -16 -5 -15 -17 -18 -68 -19
-446 -9 -711 -9 -793 -2 -127 11 -178 10 -186 -4 -4 -6 -9 -1 -11 13 -3 23 -7
24 -65 23 l-63 -1 -2 41 c-1 23 -2 82 -2 131 l-1 90 -62 3 -63 3 0 394 0 394
63 3 62 3 3 63 3 62 59 0 c32 0 61 4 64 8 2 4 40 4 83 1 43 -4 160 -8 260 -8
l182 -1 3 -62 3 -63 68 -3 67 -3 0 -119 0 -120 61 0 62 0 -6 83 c-4 45 -7 130
-7 190 l0 107 -45 0 -45 0 0 -65 c0 -37 -4 -65 -10 -65 -6 0 -10 30 -10 71 l0
71 -65 -4 -65 -4 0 63 c0 35 4 63 10 63 6 0 10 -25 10 -55z m-543 -37 c-2 -13
-4 -3 -4 22 0 25 2 35 4 23 2 -13 2 -33 0 -45z m-517 -1842 c0 -5 -5 -26 -12
-47 l-11 -39 -159 0 -159 0 -29 -66 c-17 -36 -30 -70 -30 -75 0 -5 58 -9 130
-9 111 0 129 -2 124 -15 -4 -10 0 -15 11 -15 11 0 15 -5 11 -15 -3 -9 0 -15 9
-15 8 0 15 -3 15 -7 0 -5 -21 -70 -46 -145 -37 -111 -49 -138 -64 -138 -10 0
-22 -9 -25 -20 -3 -11 -15 -20 -25 -20 -10 0 -20 -7 -24 -15 -4 -13 -39 -15
-221 -15 -118 0 -215 2 -215 5 0 3 14 32 30 65 l30 60 179 0 178 0 31 83 c16
45 27 86 22 90 -4 5 -64 7 -134 5 -100 -2 -125 0 -121 10 2 7 -2 15 -10 18 -8
4 -15 12 -15 19 0 7 -4 15 -10 17 -5 2 14 54 43 117 37 80 59 116 75 122 12 5
22 13 22 19 0 5 9 10 19 10 10 0 21 6 24 13 5 14 357 18 357 3z m190 4 c0 -3
-29 -110 -65 -239 -36 -128 -65 -239 -65 -247 0 -8 7 -14 15 -14 9 0 12 -6 9
-15 -5 -13 11 -15 110 -15 96 0 116 3 116 15 0 8 9 15 19 15 24 0 22 -10 71
250 23 118 43 224 46 235 4 18 12 20 59 17 30 -2 55 -8 55 -12 0 -5 -18 -118
-39 -252 -22 -133 -41 -254 -43 -268 -2 -14 -8 -25 -15 -25 -18 0 -31 -17 -35
-45 -2 -21 -9 -26 -40 -28 -25 -2 -38 -8 -38 -18 0 -12 -30 -14 -180 -14 -153
0 -180 2 -180 15 0 8 -7 15 -15 15 -8 0 -15 9 -15 20 0 11 -7 20 -15 20 -11 0
-12 5 -5 26 14 35 13 44 -5 44 -8 0 -15 3 -15 6 0 4 18 65 40 135 22 71 58
186 80 257 l39 127 56 0 c30 0 55 -2 55 -5z m560 -11 c0 -5 7 -9 15 -9 11 0
14 -7 9 -25 -5 -19 -2 -25 10 -25 9 0 16 -7 16 -15 0 -8 7 -15 15 -15 9 0 15
-9 15 -25 0 -14 7 -28 15 -31 8 -4 15 -17 15 -30 0 -15 6 -24 15 -24 8 0 15
-7 15 -15 0 -8 7 -15 15 -15 10 0 15 -10 15 -30 0 -19 5 -30 14 -30 9 0 16
-12 18 -32 2 -25 8 -33 23 -33 19 0 20 8 23 182 l2 181 60 4 60 3 1 -270 c1
-148 2 -298 4 -332 l3 -63 -69 0 c-55 0 -69 3 -69 15 0 8 -8 15 -19 15 -15 0
-18 7 -17 38 1 29 -3 37 -16 36 -11 -1 -18 5 -18 17 0 12 -7 19 -18 19 -15 0
-18 6 -14 31 3 24 0 31 -15 35 -15 4 -18 12 -15 35 4 24 1 29 -16 29 -12 0
-22 9 -25 21 -3 12 -10 18 -16 14 -7 -4 -11 7 -11 29 0 26 -4 36 -15 36 -11 0
-15 8 -13 28 2 21 -1 27 -17 27 -19 0 -22 -14 -43 -210 -13 -115 -25 -211 -26
-213 -2 -1 -32 -2 -68 0 l-64 3 47 330 c25 182 47 330 48 330 47 0 111 -9 111
-16z m904 -36 l6 -43 -152 0 c-145 0 -154 -1 -174 -23 -16 -17 -20 -31 -16
-59 2 -24 9 -38 18 -38 8 0 14 -7 14 -15 0 -12 20 -15 120 -15 100 0 120 -2
120 -15 0 -10 10 -15 34 -15 29 0 34 -4 39 -29 4 -17 14 -31 23 -33 14 -2 21
-25 35 -103 22 -123 22 -126 7 -123 -9 2 -13 -9 -12 -35 1 -22 -3 -37 -10 -36
-41 5 -68 -2 -62 -16 5 -13 -23 -15 -214 -15 l-220 0 0 65 0 65 180 0 c128 0
180 3 180 11 0 7 7 17 15 23 21 16 9 97 -16 103 -9 3 -19 14 -22 24 -5 19 -14
20 -124 18 -102 -1 -118 1 -121 15 -2 9 -9 16 -17 16 -7 0 -15 7 -19 15 -3 8
-12 15 -21 15 -8 0 -15 7 -15 15 0 8 -7 15 -15 15 -11 0 -15 12 -15 49 0 26
-3 69 -6 95 -6 38 -4 46 10 46 10 0 16 9 16 25 0 16 6 25 15 25 8 0 15 4 15
10 0 10 379 20 391 10 4 -3 9 -24 13 -47z m468 3 l18 -46 -139 0 c-75 0 -140
-2 -143 -5 -3 -3 2 -36 11 -73 l17 -67 151 -3 150 -3 12 -42 c7 -23 14 -49 17
-57 3 -13 -16 -15 -141 -12 -121 3 -146 1 -151 -12 -3 -8 2 -49 11 -90 l17
-76 162 0 162 0 21 -65 21 -65 -234 0 -233 0 -10 38 c-13 48 -121 599 -121
615 0 9 46 12 192 10 l193 -2 17 -45z m535 -1 l23 -45 -75 0 c-56 0 -75 -3
-75 -13 0 -8 49 -128 110 -267 60 -139 112 -262 116 -272 5 -17 1 -19 -61 -16
l-67 3 -112 280 -112 280 -96 3 -96 3 -16 46 c-9 26 -16 47 -16 47 0 1 102 0
227 -1 l227 -2 23 -46z m-3093 -840 c15 -14 30 -25 34 -25 12 0 43 -165 32
-168 -17 -6 -11 -40 9 -59 12 -11 25 -50 36 -105 16 -79 16 -88 2 -102 -9 -9
-23 -16 -31 -16 -9 0 -16 -5 -16 -10 0 -7 -45 -10 -127 -8 l-126 3 -67 240
c-36 132 -69 248 -73 258 -6 16 5 17 147 17 149 0 154 -1 180 -25z m426 15 c0
-5 5 -10 10 -10 30 0 50 -43 65 -141 13 -87 13 -102 1 -115 -8 -8 -24 -14 -35
-14 -27 0 -28 -29 -1 -60 11 -13 20 -34 20 -47 0 -14 6 -23 15 -23 8 0 15 -9
15 -20 0 -10 6 -23 13 -27 8 -4 16 -18 19 -30 6 -21 3 -23 -38 -23 -37 0 -44
3 -44 20 0 11 -6 20 -14 20 -8 0 -17 15 -20 35 -4 21 -13 35 -21 35 -8 0 -15
9 -15 20 0 10 -6 23 -12 27 -7 4 -18 17 -24 28 -8 14 -24 21 -54 23 -23 2 -46
0 -51 -5 -4 -4 -2 -37 5 -73 29 -143 31 -130 -17 -130 l-42 0 -48 233 c-27
128 -51 245 -54 260 l-5 27 166 0 c104 0 166 -4 166 -10z m370 -10 c0 -11 7
-23 15 -26 8 -4 15 -18 15 -34 0 -16 7 -35 15 -44 8 -8 18 -28 21 -45 4 -16
12 -32 20 -35 9 -4 14 -21 14 -51 0 -33 4 -45 15 -45 10 0 15 -11 15 -35 0
-24 5 -35 15 -35 10 0 15 -11 15 -35 0 -24 5 -35 15 -35 11 0 15 -11 15 -40
l0 -40 -40 0 c-33 0 -40 3 -40 19 0 11 -6 26 -14 33 -7 8 -17 24 -20 36 -7 21
-13 22 -97 22 -81 0 -89 -2 -89 -19 0 -11 -5 -23 -11 -27 -6 -3 -9 -19 -5 -35
5 -28 5 -29 -39 -29 -41 0 -45 2 -45 24 0 13 -3 31 -6 40 -4 10 -1 16 8 16 10
0 13 10 10 35 -3 23 0 35 8 35 9 0 11 11 7 34 -4 24 -1 36 9 40 7 3 12 11 10
18 -15 47 -15 78 0 78 12 0 14 7 8 35 -4 23 -2 35 5 35 6 0 11 17 11 40 0 22
5 40 10 40 6 0 10 11 10 25 0 24 3 25 60 25 54 0 60 -2 60 -20z m245 -29 c4
-28 13 -52 21 -55 10 -4 14 -24 14 -76 0 -56 3 -70 15 -70 11 0 15 -12 15 -50
0 -44 2 -50 21 -50 20 0 21 4 14 59 -5 48 -4 59 9 64 12 5 14 16 10 50 -5 36
-3 45 11 51 14 5 16 15 10 66 l-7 60 66 0 66 0 0 -65 c0 -37 4 -65 10 -65 6 0
10 -20 10 -45 0 -31 5 -47 15 -51 11 -5 15 -22 15 -66 0 -51 2 -59 18 -56 13
2 18 15 20 51 2 26 7 47 13 47 5 0 9 33 9 74 0 58 3 75 16 80 12 5 15 17 12
51 l-3 45 47 0 48 0 0 -44 c0 -30 -5 -46 -15 -50 -11 -4 -15 -22 -15 -76 0
-40 -4 -70 -10 -70 -6 0 -10 -26 -10 -59 0 -43 -4 -60 -15 -65 -11 -4 -15 -21
-15 -61 0 -30 -4 -55 -10 -55 -5 0 -10 -9 -10 -20 0 -18 -7 -20 -55 -20 l-55
0 0 34 c0 19 -7 41 -15 50 -9 9 -15 33 -15 64 0 34 -5 52 -14 55 -10 4 -16 25
-18 64 -2 44 -7 58 -18 58 -12 0 -15 -13 -15 -58 0 -38 -5 -61 -14 -66 -9 -6
-12 -24 -10 -60 3 -36 0 -51 -8 -51 -9 0 -13 -16 -13 -45 l0 -45 -55 0 c-48 0
-55 3 -55 19 0 11 -5 21 -12 23 -6 2 -13 30 -16 61 -3 39 -9 57 -18 57 -10 0
-14 15 -14 55 0 39 -4 57 -14 61 -9 4 -17 30 -21 75 -4 39 -13 72 -20 77 -7 4
-14 26 -17 50 l-4 42 47 0 47 0 7 -49z m640 -171 l-8 -220 113 0 c98 0 111 -2
106 -16 -3 -9 -6 -27 -6 -40 l0 -24 -150 0 -150 0 0 163 c0 89 3 206 7 260 l6
97 45 0 44 0 -7 -220z m636 178 l-6 -43 -116 -3 -116 -3 -7 -37 c-3 -20 -6
-52 -6 -69 l0 -33 110 0 c107 0 110 -1 110 -22 -1 -62 -2 -63 -111 -60 -67 2
-105 -1 -115 -9 -9 -7 -14 -31 -14 -65 l0 -54 105 0 105 0 0 -40 0 -40 -155 0
-155 0 5 53 c7 67 35 426 35 449 0 17 14 18 168 18 l168 0 -5 -42z m405 28 c8
-8 14 -19 14 -24 0 -6 5 -12 11 -14 16 -5 -21 -188 -38 -188 -7 0 -15 -11 -19
-25 -4 -18 -13 -25 -30 -25 -17 0 -25 -7 -30 -27 -5 -17 -3 -28 5 -31 8 -3 9
-16 5 -38 -4 -23 -2 -34 5 -34 8 0 10 -11 5 -35 -4 -23 -2 -35 5 -35 6 0 11
-7 11 -15 0 -11 -12 -15 -44 -15 -39 0 -44 2 -39 20 3 11 0 20 -6 20 -6 0 -11
11 -11 25 0 14 -5 25 -10 25 -7 0 -8 13 -4 35 4 22 2 35 -4 35 -6 0 -12 10
-14 23 -3 19 -9 22 -53 22 l-50 0 -12 -65 c-6 -36 -14 -82 -18 -102 -6 -36 -8
-38 -45 -38 -31 0 -40 4 -40 17 0 21 58 449 65 481 5 22 8 22 166 22 126 0
164 -3 175 -14z m490 -3 c-3 -10 -8 -30 -12 -45 l-6 -28 -143 0 -143 0 -12
-52 c-10 -39 -10 -53 -1 -56 6 -2 11 -10 11 -18 0 -11 20 -14 95 -14 101 0
126 -9 117 -43 -3 -11 0 -22 6 -26 15 -9 -24 -140 -49 -164 -10 -10 -19 -22
-19 -27 0 -6 -11 -10 -25 -10 -14 0 -25 -4 -25 -10 0 -6 -54 -10 -141 -10
l-141 0 6 23 c3 12 6 30 6 40 0 15 13 17 125 17 77 0 125 4 125 10 0 6 7 10
15 10 16 0 40 73 31 97 -5 11 -23 14 -86 11 -59 -2 -80 0 -80 10 0 6 -7 12
-16 12 -21 0 -44 25 -44 48 0 11 -4 22 -9 24 -14 5 15 130 33 144 9 6 16 18
16 26 0 9 10 23 23 31 18 13 54 16 185 16 151 1 163 0 158 -16z"/>
<path d="M2470 3912 l0 -53 51 3 52 3 0 49 0 48 -52 2 -51 1 0 -53z m73 -29
c-13 -2 -33 -2 -45 0 -13 2 -3 4 22 4 25 0 35 -2 23 -4z"/>
<path d="M1868 3832 l-48 -3 0 -49 0 -48 51 -4 c28 -1 53 -1 55 1 7 8 4 100
-3 103 -5 2 -29 2 -55 0z"/>
<path d="M2398 3713 l-48 -4 0 -45 0 -44 39 0 c22 0 46 -3 55 -6 13 -5 16 3
16 50 0 31 -3 55 -7 54 -5 -1 -29 -3 -55 -5z"/>
<path d="M2628 3573 c18 -2 45 -2 60 0 15 2 0 4 -33 4 -33 0 -45 -2 -27 -4z"/>
<path d="M2066 3513 l2 -58 53 0 54 0 3 58 3 57 -58 0 -58 0 1 -57z"/>
<path d="M2600 3520 l0 -40 58 2 c56 2 56 2 10 5 -47 4 -48 5 -48 39 0 18 -4
34 -10 34 -5 0 -10 -18 -10 -40z"/>
<path d="M3163 2813 c15 -2 39 -2 55 0 15 2 2 4 -28 4 -30 0 -43 -2 -27 -4z"/>
<path d="M920 1224 c0 -9 7 -40 16 -70 l15 -54 65 0 c49 0 64 3 64 14 0 8 5
16 11 18 9 3 9 17 -1 56 l-12 52 -79 0 c-66 0 -79 -3 -79 -16z"/>
<path d="M976 1011 c-3 -4 2 -33 11 -65 l16 -56 78 0 c44 0 79 3 79 6 0 17
-24 101 -33 112 -11 14 -143 17 -151 3z"/>
<path d="M1336 1232 c-2 -4 1 -34 8 -67 l12 -60 73 -3 c86 -3 112 13 104 64
-12 80 -4 74 -103 74 -49 0 -91 -3 -94 -8z"/>
<path d="M1856 1175 c4 -24 3 -35 -6 -35 -8 0 -11 -16 -8 -50 2 -35 -1 -50 -9
-50 -19 0 -16 -27 3 -34 27 -10 112 -7 120 6 4 6 0 16 -8 22 -8 6 -18 32 -22
59 -5 31 -12 47 -22 47 -9 0 -14 11 -14 35 0 29 -4 35 -20 35 -18 0 -20 -4
-14 -35z"/>
<path d="M3587 1218 c-3 -13 -9 -44 -12 -70 l-7 -48 76 0 c65 0 79 3 98 22 20
20 42 94 32 110 -3 5 -45 8 -94 8 -83 0 -88 -1 -93 -22z"/>
</g>
</svg>
